<?xml version="1.0" standalone="yes"?>

<svg version="1.1" viewBox="0.0 0.0 528.0393700787401 646.9028871391076" fill="none" stroke="none" stroke-linecap="square" stroke-miterlimit="10" xmlns="http://www.w3.org/2000/svg" xmlns:xlink="http://www.w3.org/1999/xlink"><clipPath id="p.0"><path d="m0 0l528.03937 0l0 646.9029l-528.03937 0l0 -646.9029z" clip-rule="nonzero"></path></clipPath><g clip-path="url(#p.0)"><path fill="#000000" fill-opacity="0.0" d="m0 0l528.03937 0l0 646.9029l-528.03937 0z" fill-rule="nonzero"></path><path fill="#efefef" d="m8.0 132.80577l480.34647 0l0 390.01575l-480.34647 0z" fill-rule="nonzero"></path><path stroke="#000000" stroke-width="1.0" stroke-linejoin="round" stroke-linecap="butt" d="m8.0 132.80577l480.34647 0l0 390.01575l-480.34647 0z" fill-rule="nonzero"></path><path fill="#000000" d="m27.0625 155.3614q1.5625 0 1.5625 -1.53125q0 -0.09375 0.09375 -0.09375l0.28125 0q0.09375 0 0.09375 0.09375l0 4.359375q0 0.09375 -0.09375 0.09375l-0.28125 0q-0.09375 0 -0.09375 -0.09375q0 -1.078125 -0.609375 -1.484375q-0.328125 -0.234375 -0.9375 -0.234375l-4.609375 0q-0.28125 0 -0.28125 0.328125l0 6.015625q0 0.796875 0.953125 1.1875q0.953125 0.375 1.203125 0.375q0.25 0 0.25 0.09375l0 0.28125q0 0.09375 -0.09375 0.09375l-6.390625 0q-0.09375 0 -0.09375 -0.09375l0 -0.28125q0 -0.09375 0.1875 -0.09375q0.203125 0 0.625 -0.1875q0.421875 -0.1875 0.734375 -0.546875q0.328125 -0.375 0.328125 -0.90625l0 -12.65625q0 -0.765625 -0.796875 -1.09375q-0.46875 -0.203125 -0.9375 -0.203125l-0.046875 0q-0.09375 0 -0.09375 -0.09375l0 -0.28125q0 -0.09375 0.09375 -0.09375l11.0625 0q0.140625 0.03125 0.203125 0.078125q0.078125 0.03125 0.078125 0.203125l0 2.828125q0 0.140625 -0.046875 0.1875q-0.046875 0.03125 -0.140625 0.03125l-0.140625 0q-0.03125 -0.015625 -0.171875 -0.640625q-0.125 -0.625 -0.40625 -0.96875q-0.484375 -0.515625 -1.09375 -0.578125q-0.25 -0.015625 -0.59375 -0.015625l-4.4375 0q-0.234375 0 -0.234375 0.234375l0 5.421875q0 0.265625 0.28125 0.265625l4.59375 0zm12.457031 8.453125q-0.0625 -0.203125 -0.15625 -0.140625q-0.09375 0.0625 -0.765625 0.40625q-2.1875 1.09375 -3.65625 1.09375q-1.46875 0 -2.109375 -0.9375q-0.234375 -0.359375 -0.234375 -0.875l0 -7.140625q-0.03125 -0.34375 -0.296875 -0.59375q-0.375 -0.296875 -0.765625 -0.3125q-0.390625 -0.03125 -0.390625 -0.25q0 -0.21875 0.1875 -0.265625l2.6875 -0.765625q0.140625 -0.046875 0.265625 -0.046875q0.140625 0 0.140625 0.1875l0 7.875q0 0.8125 0.71875 1.265625q0.734375 0.4375 1.859375 0.4375q1.140625 0 2.046875 -0.6875q0.28125 -0.21875 0.46875 -0.5l0 -6.34375q-0.046875 -0.34375 -0.3125 -0.59375q-0.359375 -0.296875 -0.75 -0.3125q-0.390625 -0.03125 -0.390625 -0.25q0 -0.21875 0.1875 -0.265625l2.671875 -0.765625q0.140625 -0.046875 0.28125 -0.046875q0.140625 0 0.140625 0.234375l0 8.3125q0.046875 0.515625 0.28125 0.75q0.234375 0.21875 0.765625 0.21875l0.6875 -0.046875q0.0625 0 0.0625 0.140625q0 0.125 -0.171875 0.203125l-3.125 1.296875q-0.140625 0.0625 -0.234375 0.0625q-0.09375 0 -0.09375 -0.28125l0 -1.0625zm13.75 -2.65625l-0.015625 -2.484375q0 -1.5 -0.265625 -2.109375q-0.25 -0.609375 -0.65625 -0.921875q-0.390625 -0.3125 -1.078125 -0.3125q-0.671875 0 -2.84375 1.046875q-0.296875 0.1875 -0.3125 0.328125l0 6.3125q0 1.1875 1.265625 1.359375q0.5625 0.078125 0.5625 0.265625q0 0.171875 -0.125 0.203125l-5.21875 0q-0.125 -0.03125 -0.125 -0.171875q0 -0.21875 0.546875 -0.296875q1.265625 -0.171875 1.265625 -1.359375l0 -6.734375q0 -0.484375 -0.53125 -0.671875q-0.234375 -0.078125 -0.515625 -0.125q-0.265625 -0.0625 -0.421875 -0.109375q-0.15625 -0.046875 -0.203125 -0.078125q-0.03125 -0.046875 -0.03125 -0.1875q0 -0.140625 0.171875 -0.234375l2.984375 -1.40625q0.140625 -0.0625 0.1875 -0.0625q0.1875 0 0.1875 0.28125l0 1.828125q0.046875 0.109375 0.09375 0.109375q0.078125 0 0.515625 -0.203125q1.0 -0.5 2.015625 -0.96875q1.03125 -0.46875 1.6875 -0.46875q2.71875 0 2.71875 4.921875l-0.109375 3.421875l0 0.6875q0 0.90625 0.90625 1.1875q0.390625 0.140625 0.75 0.1875q0.359375 0.046875 0.46875 0.09375q0.109375 0.046875 0.109375 0.1875q0 0.140625 -0.109375 0.171875l-5.65625 0q-0.109375 -0.03125 -0.109375 -0.171875q0 -0.21875 0.546875 -0.296875q1.25 -0.171875 1.25 -1.453125q0.09375 -0.59375 0.09375 -1.765625zm14.234375 -5.765625q0 0.8125 -0.9375 0.8125q-0.484375 0 -0.828125 -0.265625q-0.328125 -0.28125 -0.515625 -0.46875q-0.171875 -0.203125 -0.375 -0.359375q-0.84375 -0.703125 -2.0625 -0.15625q-1.203125 0.53125 -1.859375 2.296875q-0.359375 0.96875 -0.359375 1.9375q0 2.0625 0.9375 3.375q0.9375 1.296875 2.859375 1.296875q1.453125 0 2.59375 -1.296875q0.359375 -0.375 0.421875 -0.375q0.078125 0 0.15625 0.078125q0.078125 0.0625 0.078125 0.203125q0 0.125 -0.0625 0.1875q-1.796875 2.5 -4.515625 2.5q-1.96875 0 -3.234375 -1.453125q-1.25 -1.46875 -1.25 -3.359375q0 -3.5 1.6875 -5.03125q1.46875 -1.34375 4.203125 -1.34375q1.6875 0 2.234375 0.34375q0.546875 0.328125 0.78125 0.84375q0.046875 0.125 0.046875 0.234375zm4.6015625 0.4375q-0.078125 0 -0.078125 0.109375l0 6.46875q0 0.703125 0.3125 1.109375q0.3125 0.390625 0.796875 0.390625q0.484375 0 0.828125 -0.15625q0.359375 -0.15625 0.625 -0.34375q0.265625 -0.1875 0.46875 -0.34375q0.21875 -0.171875 0.375 -0.171875q0.171875 0 0.171875 0.09375q0 0.28125 -0.0625 0.359375q-1.40625 1.8125 -2.71875 1.8125q-1.296875 0 -1.96875 -0.828125q-0.65625 -0.828125 -0.65625 -1.96875l0 -6.53125l-0.875 0q-0.328125 0 -0.34375 -0.203125q-0.015625 -0.21875 0.0625 -0.28125q0.625 -0.390625 1.71875 -1.421875q0.109375 -0.125 0.3125 -0.375q0.203125 -0.265625 0.578125 -0.703125q0.375 -0.453125 0.578125 -0.453125q0.203125 0 0.203125 0.15625q0 0.03125 -0.40625 1.53125q0 0.21875 0.1875 0.234375l3.0 0q0.515625 0 0.515625 1.453125q0 0.0625 -0.09375 0.0625l-3.53125 0zm4.7382812 9.015625q-0.125 -0.03125 -0.125 -0.171875q0 -0.203125 0.546875 -0.28125q1.265625 -0.1875 1.265625 -1.328125l0 -6.203125q0 -0.484375 -0.53125 -0.671875q-0.234375 -0.09375 -0.515625 -0.140625q-0.265625 -0.046875 -0.421875 -0.09375q-0.15625 -0.046875 -0.203125 -0.09375q-0.03125 -0.046875 -0.03125 -0.171875q0 -0.140625 0.171875 -0.234375l2.984375 -1.40625q0.140625 -0.0625 0.1875 -0.0625q0.1875 0 0.1875 0.28125l0 8.796875q0 1.140625 1.265625 1.328125q0.5625 0.078125 0.5625 0.25q0 0.171875 -0.125 0.203125l-5.21875 0zm2.4375 -14.15625q-0.484375 0 -0.859375 -0.296875q-0.359375 -0.3125 -0.359375 -0.859375q0 -0.546875 0.34375 -0.859375q0.359375 -0.3125 0.84375 -0.3125q0.484375 0 0.8125 0.375q0.34375 0.375 0.34375 0.8125q0 0.421875 -0.328125 0.78125q-0.3125 0.359375 -0.796875 0.359375zm4.359375 8.890625q0 -2.3125 1.640625 -3.96875q1.640625 -1.65625 3.921875 -1.65625q2.28125 0 3.96875 1.609375q1.6875 1.609375 1.6875 3.984375q0 2.359375 -1.609375 3.984375q-1.59375 1.625 -4.015625 1.625q-2.40625 0 -4.0 -1.640625q-1.59375 -1.640625 -1.59375 -3.9375zm2.921875 3.015625q1.15625 1.9375 3.125 1.9375q1.546875 0 2.359375 -1.234375q0.8125 -1.234375 0.8125 -3.015625q0 -1.796875 -1.140625 -3.6875q-1.140625 -1.890625 -3.078125 -1.890625q-1.421875 0 -2.234375 1.234375q-0.8125 1.21875 -0.8125 3.109375q0 1.875 0.96875 3.546875zm18.597656 -1.4375l-0.015625 -2.484375q0 -1.5 -0.265625 -2.109375q-0.25 -0.609375 -0.65625 -0.921875q-0.390625 -0.3125 -1.078125 -0.3125q-0.671875 0 -2.84375 1.046875q-0.296875 0.1875 -0.3125 0.328125l0 6.3125q0 1.1875 1.265625 1.359375q0.5625 0.078125 0.5625 0.265625q0 0.171875 -0.125 0.203125l-5.21875 0q-0.125 -0.03125 -0.125 -0.171875q0 -0.21875 0.546875 -0.296875q1.265625 -0.171875 1.265625 -1.359375l0 -6.734375q0 -0.484375 -0.53125 -0.671875q-0.234375 -0.078125 -0.515625 -0.125q-0.265625 -0.0625 -0.421875 -0.109375q-0.15625 -0.046875 -0.203125 -0.078125q-0.03125 -0.046875 -0.03125 -0.1875q0 -0.140625 0.171875 -0.234375l2.984375 -1.40625q0.140625 -0.0625 0.1875 -0.0625q0.1875 0 0.1875 0.28125l0 1.828125q0.046875 0.109375 0.09375 0.109375q0.078125 0 0.515625 -0.203125q1.0 -0.5 2.015625 -0.96875q1.03125 -0.46875 1.6875 -0.46875q2.71875 0 2.71875 4.921875l-0.109375 3.421875l0 0.6875q0 0.90625 0.90625 1.1875q0.390625 0.140625 0.75 0.1875q0.359375 0.046875 0.46875 0.09375q0.109375 0.046875 0.109375 0.1875q0 0.140625 -0.109375 0.171875l-5.65625 0q-0.109375 -0.03125 -0.109375 -0.171875q0 -0.21875 0.546875 -0.296875q1.25 -0.171875 1.25 -1.453125q0.09375 -0.59375 0.09375 -1.765625z" fill-rule="nonzero"></path><path fill="#000000" fill-opacity="0.0" d="m178.0 192.80577c-12.5 0 -25.007874 18.440948 -25.0 36.881897c0.007873535 18.440948 12.531494 36.88188 25.062988 36.88188" fill-rule="nonzero"></path><path stroke="#000000" stroke-width="1.0" stroke-linejoin="round" stroke-linecap="butt" d="m178.0 192.80577c-12.5 0 -25.007874 18.440948 -25.0 36.881897c0.0039367676 9.220474 3.1368103 18.440948 7.835144 25.356293c2.3491516 3.4576874 5.089691 6.3390656 8.026138 8.356064c0.7341156 0.50424194 1.4804688 0.95443726 2.236023 1.3461304c0.18888855 0.09793091 0.37835693 0.1921997 0.56832886 0.28274536c0.09500122 0.04525757 0.19012451 0.08959961 0.28538513 0.1329956l0.2533722 0.11276245" fill-rule="evenodd"></path><path fill="#000000" stroke="#000000" stroke-width="1.0" stroke-linecap="butt" d="m171.84792 266.88748l4.787628 -0.63342285l-4.074692 -2.5921936z" fill-rule="evenodd"></path><path fill="#000000" fill-opacity="0.0" d="m178.0 340.30447c-12.5 0 -25.007874 18.433044 -25.0 36.86612c0.007873535 18.433075 12.531494 36.86615 25.062988 36.86615" fill-rule="nonzero"></path><path stroke="#000000" stroke-width="1.0" stroke-linejoin="round" stroke-linecap="butt" d="m178.0 340.30447c-12.5 0 -25.007874 18.433044 -25.0 36.86612c0.0039367676 9.216553 3.1368103 18.433075 7.835144 25.34549c2.3491516 3.4562073 5.089691 6.3363647 8.026138 8.352478c0.7341156 0.5040283 1.4804688 0.95407104 2.236023 1.345581c0.18888855 0.09786987 0.37835693 0.19210815 0.56832886 0.2826233c0.09500122 0.04522705 0.19012451 0.08956909 0.28538513 0.13290405l0.25325012 0.112701416" fill-rule="evenodd"></path><path fill="#000000" stroke="#000000" stroke-width="1.0" stroke-linecap="butt" d="m171.84795 414.3552l4.787567 -0.6338196l-4.0749054 -2.591858z" fill-rule="evenodd"></path><path fill="#000000" fill-opacity="0.0" d="m178.0 266.5551c-12.5 0 -25.007874 18.440948 -25.0 36.881897c0.007873535 18.440948 12.531494 36.881897 25.062988 36.881897" fill-rule="nonzero"></path><path stroke="#000000" stroke-width="1.0" stroke-linejoin="round" stroke-linecap="butt" d="m178.0 266.5551c-12.5 0 -25.007874 18.440948 -25.0 36.881897c0.0039367676 9.220459 3.1368103 18.440948 7.835144 25.356293c2.3491516 3.457672 5.089691 6.339081 8.026138 8.356049c0.7341156 0.50424194 1.4804688 0.9544678 2.236023 1.3461609c0.18888855 0.09793091 0.37835693 0.1921997 0.56832886 0.28271484c0.09500122 0.045288086 0.19012451 0.08963013 0.28538513 0.1329956l0.2533722 0.11279297" fill-rule="evenodd"></path><path fill="#000000" stroke="#000000" stroke-width="1.0" stroke-linecap="butt" d="m171.84792 340.6368l4.787628 -0.63342285l-4.074692 -2.5921936z" fill-rule="evenodd"></path><path fill="#000000" fill-opacity="0.0" d="m178.0 414.05118c-12.5 0 -25.007874 18.440948 -25.0 36.881897c0.007873535 18.440948 12.531494 36.881897 25.062988 36.881897" fill-rule="nonzero"></path><path stroke="#000000" stroke-width="1.0" stroke-linejoin="round" stroke-linecap="butt" d="m178.0 414.05118c-12.5 0 -25.007874 18.440948 -25.0 36.881897c0.0039367676 9.220459 3.1368103 18.440948 7.835144 25.356293c2.3491516 3.457672 5.089691 6.339081 8.026138 8.356049c0.7341156 0.50427246 1.4804688 0.9544983 2.236023 1.3461914c0.18888855 0.09786987 0.37835693 0.19216919 0.56832886 0.28271484c0.09500122 0.04522705 0.19012451 0.08956909 0.28538513 0.1329956l0.2533722 0.11273193" fill-rule="evenodd"></path><path fill="#000000" stroke="#000000" stroke-width="1.0" stroke-linecap="butt" d="m171.84792 488.13287l4.787628 -0.63342285l-4.074692 -2.5921936z" fill-rule="evenodd"></path><path fill="#000000" fill-opacity="0.0" d="m499.66928 192.80577l0 310.01575" fill-rule="nonzero"></path><path stroke="#000000" stroke-width="1.0" stroke-linejoin="round" stroke-linecap="butt" d="m499.66928 192.80577l0 304.01575" fill-rule="evenodd"></path><path fill="#000000" stroke="#000000" stroke-width="1.0" stroke-linecap="butt" d="m498.01755 496.82153l1.6517334 4.538086l1.6517334 -4.538086z" fill-rule="evenodd"></path><path fill="#000000" fill-opacity="0.0" d="m548.3307 262.39633l0 138.33069l-37.322815 0l0 -138.33069z" fill-rule="nonzero"></path><path fill="#000000" d="m520.62634 306.10074q0 -0.09375 -0.140625 -0.09375l-8.625 0q-0.9375 0 -1.46875 0.40625q-0.53125 0.421875 -0.53125 1.0625q0 0.640625 0.203125 1.109375q0.21875 0.484375 0.46875 0.828125q0.25 0.359375 0.453125 0.640625q0.21875 0.28125 0.21875 0.5q0 0.21875 -0.109375 0.21875q-0.375 0 -0.484375 -0.078125q-2.421875 -1.875 -2.421875 -3.625q0 -1.734375 1.09375 -2.625q1.109375 -0.875 2.640625 -0.875l8.703125 0l0 -1.171875q0 -0.4375 0.28125 -0.46875q0.28125 -0.015625 0.359375 0.09375q0.53125 0.828125 1.90625 2.28125q0.171875 0.15625 0.515625 0.421875q0.34375 0.265625 0.9375 0.765625q0.59375 0.515625 0.59375 0.78125q0 0.265625 -0.21875 0.265625q-0.03125 0 -2.046875 -0.53125q-0.28125 0 -0.296875 0.25l0 3.984375q0 0.6875 -1.9375 0.6875q-0.09375 0 -0.09375 -0.125l0 -4.703125zm-12.015625 6.3125q0.03125 -0.15625 0.21875 -0.15625q0.28125 0 0.375 0.734375q0.25 1.6875 1.78125 1.6875l8.265625 0q0.65625 0 0.90625 -0.71875q0.109375 -0.3125 0.171875 -0.671875q0.078125 -0.359375 0.140625 -0.578125q0.0625 -0.203125 0.109375 -0.265625q0.0625 -0.046875 0.234375 -0.046875q0.1875 0 0.3125 0.234375l1.875 3.984375q0.09375 0.1875 0.09375 0.234375q0 0.265625 -0.375 0.265625l-11.734375 0q-1.53125 0 -1.78125 1.6875q-0.09375 0.734375 -0.328125 0.734375q-0.234375 0 -0.265625 -0.15625l0 -6.96875zm18.875 3.25q0 -0.640625 0.40625 -1.140625q0.40625 -0.484375 1.125 -0.484375q0.734375 0 1.15625 0.46875q0.421875 0.46875 0.421875 1.109375q0 0.65625 -0.5 1.09375q-0.5 0.453125 -1.078125 0.453125q-0.578125 0 -1.0625 -0.421875q-0.46875 -0.421875 -0.46875 -1.078125zm-13.953125 26.34375l3.296875 -0.03125q2.015625 0 2.828125 -0.34375q0.8125 -0.34375 1.21875 -0.875q0.421875 -0.53125 0.421875 -1.4375q0 -0.890625 -1.40625 -3.796875q-0.234375 -0.390625 -0.4375 -0.40625l-8.40625 0q-1.578125 0 -1.8125 1.6875q-0.109375 0.734375 -0.359375 0.734375q-0.234375 0 -0.265625 -0.15625l0 -6.96875q0.03125 -0.15625 0.21875 -0.15625q0.296875 0 0.40625 0.734375q0.234375 1.6875 1.8125 1.6875l7.78125 0q2.453125 0 2.453125 -3.03125q0 -1.109375 -1.3125 -3.078125q-0.328125 -0.5 -0.609375 -0.734375l-8.3125 0q-1.578125 0 -1.8125 1.6875q-0.109375 0.734375 -0.359375 0.734375q-0.234375 0 -0.265625 -0.15625l0 -6.96875q0.03125 -0.15625 0.21875 -0.15625q0.296875 0 0.40625 0.734375q0.234375 1.6875 1.78125 1.6875l9.0 0q0.65625 0 0.90625 -0.71875q0.109375 -0.3125 0.171875 -0.671875q0.078125 -0.359375 0.140625 -0.578125q0.0625 -0.203125 0.109375 -0.265625q0.0625 -0.046875 0.234375 -0.046875q0.1875 0 0.3125 0.234375l1.875 3.984375q0.09375 0.1875 0.09375 0.234375q0 0.265625 -0.375 0.265625l-2.59375 0q-0.09375 0.015625 -0.09375 0.109375q0 0.109375 0.21875 0.515625q0.21875 0.421875 0.609375 1.09375q0.40625 0.671875 0.9375 1.765625q0.53125 1.109375 0.53125 2.34375q0 1.984375 -1.703125 2.84375q-0.6875 0.328125 -0.59375 0.59375q0.109375 0.265625 0.390625 0.828125q0.65625 1.328125 1.28125 2.6875q0.625 1.359375 0.625 2.25q0 3.609375 -6.578125 3.609375l-4.5625 -0.140625l-0.90625 0q-1.21875 0 -1.59375 1.21875q-0.171875 0.515625 -0.25 0.984375q-0.0625 0.484375 -0.125 0.625q-0.0625 0.15625 -0.25 0.15625q-0.1875 0 -0.21875 -0.15625l0 -7.53125q0.03125 -0.15625 0.21875 -0.15625q0.296875 0 0.40625 0.734375q0.234375 1.671875 1.9375 1.671875q0.78125 0.125 2.359375 0.125zm3.3125 8.984375q0 -0.265625 -1.140625 -0.265625q-2.421875 0 -4.0625 1.4375q-1.640625 1.4375 -1.640625 3.5625q0 2.140625 1.84375 4.109375q0.03125 0.03125 0.03125 0.078125l0 0.078125q0 0.09375 -0.15625 0.171875q-0.140625 0.09375 -0.1875 0.171875q-2.203125 -1.8125 -3.046875 -4.265625q-0.296875 -0.84375 -0.296875 -1.90625q0 -1.0625 0.578125 -2.15625q0.59375 -1.09375 1.546875 -1.875q1.984375 -1.65625 4.9375 -1.65625q2.96875 0 5.40625 1.796875q2.4375 1.8125 2.4375 4.96875q0 2.265625 -2.03125 3.703125q-2.015625 1.4375 -3.546875 1.4375q-0.671875 0 -0.671875 -0.328125l0 -9.0625zm1.5 0.171875q-0.296875 0 -0.296875 0.28125l0 5.890625q0 0.40625 0.484375 0.40625q1.125 0 2.296875 -1.015625q1.1875 -1.0 1.1875 -2.203125q0 -1.171875 -1.0625 -2.140625q-1.0625 -0.953125 -2.421875 -1.21875l-0.1875 0z" fill-rule="nonzero"></path><path fill="#ffffff" d="m90.6636 212.3079l20.463264 -11.685532l-1.6294327 15.546417l21.410194 -7.0111694l-10.004135 9.04245l32.096832 0.30271912l-28.3768 7.4205017l7.90123 5.080414l-11.621262 2.7453918l15.353607 8.939102l-26.052551 -3.4488373l1.8569412 8.126968l-16.98304 -3.8609772l-3.4925232 7.823105l-10.698952 -3.9608002l-7.2064133 6.3028107l-7.2125626 -4.2704315l-16.04842 9.352188l-0.6886673 -9.042007l-21.64384 -1.11586l12.574333 -6.607132l-20.475567 -6.7079773l24.195602 -3.459076l-16.989185 -8.939026l25.825039 -1.2201538l-5.349472 -11.280762l24.890415 7.418228l7.206421 -12.096695z" fill-rule="nonzero"></path><path stroke="#000000" stroke-width="1.0" stroke-linejoin="round" stroke-linecap="butt" d="m90.6636 212.3079l20.463264 -11.685532l-1.6294327 15.546417l21.410194 -7.0111694l-10.004135 9.04245l32.096832 0.30271912l-28.3768 7.4205017l7.90123 5.080414l-11.621262 2.7453918l15.353607 8.939102l-26.052551 -3.4488373l1.8569412 8.126968l-16.98304 -3.8609772l-3.4925232 7.823105l-10.698952 -3.9608002l-7.2064133 6.3028107l-7.2125626 -4.2704315l-16.04842 9.352188l-0.6886673 -9.042007l-21.64384 -1.11586l12.574333 -6.607132l-20.475567 -6.7079773l24.195602 -3.459076l-16.989185 -8.939026l25.825039 -1.2201538l-5.349472 -11.280762l24.890415 7.418228l7.206421 -12.096695z" fill-rule="nonzero"></path><path fill="#000000" d="m70.04541 224.60376q0.09375 -1.5258789E-5 0.09375 0.20310974l0.25 1.96875q0.03125 0.18748474 0.03125 0.24998474q0 0.046875 -0.15625 0.04689026q-0.140625 0 -0.171875 -0.03125q-0.03125 -0.046875 -0.078125 -0.12498474q-0.03125 -0.09375 -0.09375 -0.203125q-0.046875 -0.109375 -0.09375 -0.234375q-0.203125 -0.42185974 -0.609375 -0.8437195q-1.03125 -0.9843292 -2.3125 -0.98428345q-0.765625 3.0517578E-5 -1.453125 0.51568604q-0.6875 0.5000305 -0.6875 1.1875305q0 0.671875 0.25 1.171875q0.265625 0.49998474 0.671875 0.9374695q0.421875 0.42185974 0.953125 0.8124542q0.546875 0.39060974 1.109375 0.7812042q1.46875 1.031189 2.09375 1.7655334q0.96875 1.1249542 1.0625 2.5468292q0 1.5625 -1.21875 2.515686q-1.203125 0.9375458 -2.8125 0.9376068q-1.03125 4.5776367E-5 -1.640625 -0.2186737q-0.609375 -0.20309448 -0.84375 -0.29684448q-0.21875 -0.09373474 -0.328125 -0.09373474q-0.109371185 1.5258789E-5 -0.14062119 0.015640259l-0.453125 0.09376526q-0.125 0 -0.140625 -0.203125q-0.28125 -2.2968597 -0.28125 -2.4374847q0 -0.140625 0.015625 -0.1875q0.03125 -0.0625 0.140625 -0.0625q0.265625 -1.5258789E-5 0.46875 0.7499695q0.9843712 2.0780945 3.2343712 2.0779877q1.046875 -4.5776367E-5 1.78125 -0.6250763q0.734375 -0.6250305 0.734375 -1.6406555q0 -1.609375 -1.921875 -2.9999084q-0.546875 -0.39060974 -1.578125 -1.078064q-1.03125 -0.7030792 -1.640625 -1.4061737q-0.9531212 -1.0780945 -0.9531212 -2.3905945q0 -1.328125 1.0468712 -2.1719208q1.046875 -0.8437958 2.421875 -0.84384155q0.703125 -3.0517578E-5 1.546875 0.2499237q0.859375 0.23434448 1.1875 0.31245422l0.515625 -0.06251526zm5.221344 12.671646q0 -0.078125 0.078125 -0.078125l0.265625 -1.5258789E-5q0.90625 -4.5776367E-5 1.453125 -0.39068604q0.5625 -0.39065552 0.5625 -0.9062805l0 -10.265625q0 -0.203125 -0.078125 -0.21873474q-0.078125 -0.03125 -0.1875 -0.046875l-3.5625 1.5258789E-4q-0.875 0.18753052 -1.140625 1.3281708q-0.140625 0.60939026 -0.171875 0.78126526q-0.03125 0.171875 -0.109375 0.171875l-0.15625 0q-0.0625 1.5258789E-5 -0.0625 -0.031234741l0 -0.3125l0.34375 -2.8906403q0.0625 -0.28126526 0.1875 -0.28126526q0.125 0 0.265625 0.18748474q0.15625 0.171875 0.578125 0.17185974l10.0 -4.272461E-4q0.390625 -1.5258789E-5 0.46875 -0.09378052q0.09375 -0.09375 0.171875 -0.171875q0.078125 -0.09375 0.1875 -0.09376526q0.125 0 0.15625 0.09375q0.03125 0.09375 0.046875 0.1875l0.34375 2.8906097l0 0.3125q0 0.03125 -0.0625 0.03125l-0.15625 1.5258789E-5q-0.078125 0 -0.109375 -0.140625q-0.140625 -0.921875 -0.421875 -1.4531097q-0.28125 -0.54685974 -0.890625 -0.6874542l-3.5625 1.5258789E-4q-0.109375 0.015625 -0.1875 0.046875q-0.078125 0.015625 -0.078125 0.21875l0 10.265625q0 0.515625 0.546875 0.90623474q0.546875 0.39059448 1.453125 0.39056396l0.28125 -1.5258789E-5q0.0625 0 0.0625 0.078125l0 0.21875q0 0.078125 -0.0625 0.078125l-6.375 2.746582E-4q-0.078125 0 -0.078125 -0.078125l0 -0.21875zm10.682465 -6.125458q0 -2.296875 1.28125 -4.328186q1.28125 -2.0469208 2.84375 -2.0469818q1.234375 -6.1035156E-5 2.21875 0.9530182q0.984375 0.9374695 1.484375 2.453064q0.5 1.5156097 0.5 3.1874847q0 2.53125 -1.140625 4.437546q-0.75 1.2500305 -1.84375 1.7657013q-0.546875 0.25003052 -1.140625 0.25004578q-1.125 4.5776367E-5 -2.09375 -0.90615845q-0.96875 -0.9218292 -1.546875 -2.281189q-0.5625 -1.3593445 -0.5625 -2.6249695l0 -0.859375zm4.21875 6.124817q2.609375 -1.0681152E-4 2.609375 -5.390732q0 -2.25 -0.09375 -3.03125q-0.203125 -1.6406097 -0.734375 -2.4843445q-0.671875 -1.0468445 -1.921875 -1.0467834q-2.359375 9.1552734E-5 -2.546875 4.765732q-0.03125 0.6875 -0.03125 1.65625q0 2.53125 0.546875 3.9218445q0.640625 1.6093597 2.171875 1.6092834z" fill-rule="nonzero"></path><path fill="#ffffff" d="m90.6636 293.85907l20.463264 -11.685516l-1.6294327 15.546417l21.410194 -7.0111694l-10.004135 9.04245l32.096832 0.30273438l-28.3768 7.4205017l7.90123 5.080414l-11.621262 2.7453918l15.353607 8.939087l-26.052551 -3.4488525l1.8569412 8.126984l-16.98304 -3.860962l-3.4925232 7.8230896l-10.698952 -3.960785l-7.2064133 6.3027954l-7.2125626 -4.2704163l-16.04842 9.352173l-0.6886673 -9.041992l-21.64384 -1.1158752l12.574333 -6.607147l-20.475567 -6.7079773l24.195602 -3.4590454l-16.989185 -8.939026l25.825039 -1.2201843l-5.349472 -11.280762l24.890415 7.4182434l7.206421 -12.09668z" fill-rule="nonzero"></path><path stroke="#000000" stroke-width="1.0" stroke-linejoin="round" stroke-linecap="butt" d="m90.6636 293.85907l20.463264 -11.685516l-1.6294327 15.546417l21.410194 -7.0111694l-10.004135 9.04245l32.096832 0.30273438l-28.3768 7.4205017l7.90123 5.080414l-11.621262 2.7453918l15.353607 8.939087l-26.052551 -3.4488525l1.8569412 8.126984l-16.98304 -3.860962l-3.4925232 7.8230896l-10.698952 -3.960785l-7.2064133 6.3027954l-7.2125626 -4.2704163l-16.04842 9.352173l-0.6886673 -9.041992l-21.64384 -1.1158752l12.574333 -6.607147l-20.475567 -6.7079773l24.195602 -3.4590454l-16.989185 -8.939026l25.825039 -1.2201843l-5.349472 -11.280762l24.890415 7.4182434l7.206421 -12.09668z" fill-rule="nonzero"></path><path fill="#000000" d="m70.04541 306.15494q0.09375 0 0.09375 0.203125l0.25 1.9687195q0.03125 0.1875 0.03125 0.25q0 0.046875 -0.15625 0.046905518q-0.140625 0 -0.171875 -0.03125q-0.03125 -0.046875 -0.078125 -0.125q-0.03125 -0.09375 -0.09375 -0.203125q-0.046875 -0.109375 -0.09375 -0.234375q-0.203125 -0.421875 -0.609375 -0.8437195q-1.03125 -0.9843445 -2.3125 -0.98428345q-0.765625 3.0517578E-5 -1.453125 0.51568604q-0.6875 0.5000305 -0.6875 1.1875305q0 0.671875 0.25 1.171875q0.265625 0.5 0.671875 0.9374695q0.421875 0.42184448 0.953125 0.8124695q0.546875 0.39059448 1.109375 0.78118896q1.46875 1.031189 2.09375 1.7655334q0.96875 1.1249695 1.0625 2.5468445q0 1.5625 -1.21875 2.5156555q-1.203125 0.93756104 -2.8125 0.9376221q-1.03125 6.1035156E-5 -1.640625 -0.21865845q-0.609375 -0.203125 -0.84375 -0.29684448q-0.21875 -0.09375 -0.328125 -0.09375q-0.109371185 0 -0.14062119 0.015625l-0.453125 0.09378052q-0.125 0 -0.140625 -0.203125q-0.28125 -2.2968445 -0.28125 -2.4374695q0 -0.140625 0.015625 -0.1875q0.03125 -0.0625 0.140625 -0.06253052q0.265625 0 0.46875 0.75q0.9843712 2.078064 3.2343712 2.0779724q1.046875 -3.0517578E-5 1.78125 -0.62506104q0.734375 -0.6250305 0.734375 -1.6406555q0 -1.609375 -1.921875 -2.999939q-0.546875 -0.39059448 -1.578125 -1.0780334q-1.03125 -0.7030945 -1.640625 -1.406189q-0.9531212 -1.0780945 -0.9531212 -2.3905945q0 -1.328125 1.0468712 -2.1719055q1.046875 -0.84381104 2.421875 -0.8438721q0.703125 -3.0517578E-5 1.546875 0.24993896q0.859375 0.23434448 1.1875 0.31246948l0.515625 -0.06253052zm5.221344 12.671661q0 -0.078125 0.078125 -0.07815552l0.265625 0q0.90625 -3.0517578E-5 1.453125 -0.39068604q0.5625 -0.39065552 0.5625 -0.9062805l0 -10.265625q0 -0.203125 -0.078125 -0.21875q-0.078125 -0.03125 -0.1875 -0.046844482l-3.5625 1.5258789E-4q-0.875 0.18753052 -1.140625 1.3281555q-0.140625 0.609375 -0.171875 0.78125q-0.03125 0.17190552 -0.109375 0.17190552l-0.15625 0q-0.0625 0 -0.0625 -0.03125l0 -0.3125l0.34375 -2.8906555q0.0625 -0.28125 0.1875 -0.28125q0.125 0 0.265625 0.1875q0.15625 0.171875 0.578125 0.17184448l10.0 -4.272461E-4q0.390625 -3.0517578E-5 0.46875 -0.09378052q0.09375 -0.09375 0.171875 -0.171875q0.078125 -0.09375 0.1875 -0.09375q0.125 0 0.15625 0.09375q0.03125 0.09375 0.046875 0.1875l0.34375 2.8905945l0 0.3125q0 0.03125 -0.0625 0.03125l-0.15625 0q-0.078125 0 -0.109375 -0.14059448q-0.140625 -0.921875 -0.421875 -1.453125q-0.28125 -0.5468445 -0.890625 -0.6874695l-3.5625 1.5258789E-4q-0.109375 0.015655518 -0.1875 0.046905518q-0.078125 0.015625 -0.078125 0.21875l0 10.265625q0 0.515625 0.546875 0.9062195q0.546875 0.39059448 1.453125 0.39056396l0.28125 0q0.0625 -3.0517578E-5 0.0625 0.07809448l0 0.21875q0 0.078125 -0.0625 0.07815552l-6.375 2.4414062E-4q-0.078125 3.0517578E-5 -0.078125 -0.07809448l0 -0.21875zm11.932465 -9.250519q-0.0625 0 -0.1875 -0.234375q0 -0.03125 0.328125 -0.25q0.34375 -0.21878052 1.328125 -1.093811q1.0 -0.89068604 1.640625 -1.671936l0.515625 -3.0517578E-5q0.125 0 0.15625 0.046875q0.03125 0.03125 0.03125 0.125l0 11.328125q0 0.578125 0.109375 0.6562195q0.46875 0.265625 1.859375 0.26556396q0.0625 0 0.0625 0.078125l0 0.21875q0 0.078125 -0.0625 0.078125l-5.59375 2.4414062E-4q-0.078125 0 -0.078125 -0.078125l0 -0.21875q0 -0.078125 0.078125 -0.078125q0.46875 -0.031280518 0.8125 -0.031311035q0.34375 -0.015625 0.71875 -0.046905518q0.375 -0.046875 0.53125 -0.125q0.15625 -0.09375 0.1875 -0.25003052q0.03125 -0.171875 0.03125 -0.4375l0 -9.890625q0 -0.015625 -0.203125 0.15628052q-1.21875 0.9687805 -2.21875 1.4375916l-0.046875 0.015625z" fill-rule="nonzero"></path><path fill="#ffffff" d="m90.6636 367.60712l20.463264 -11.685516l-1.6294327 15.546417l21.410194 -7.0111694l-10.004135 9.042419l32.096832 0.30273438l-28.3768 7.4205017l7.90123 5.080414l-11.621262 2.7453918l15.353607 8.939117l-26.052551 -3.4488525l1.8569412 8.126953l-16.98304 -3.860962l-3.4925232 7.82312l-10.698952 -3.9608154l-7.2064133 6.302826l-7.2125626 -4.270447l-16.04842 9.352173l-0.6886673 -9.041992l-21.64384 -1.1158752l12.574333 -6.6071167l-20.475567 -6.7079773l24.195602 -3.459076l-16.989185 -8.939026l25.825039 -1.2201538l-5.349472 -11.280762l24.890415 7.4182434l7.206421 -12.09671z" fill-rule="nonzero"></path><path stroke="#000000" stroke-width="1.0" stroke-linejoin="round" stroke-linecap="butt" d="m90.6636 367.60712l20.463264 -11.685516l-1.6294327 15.546417l21.410194 -7.0111694l-10.004135 9.042419l32.096832 0.30273438l-28.3768 7.4205017l7.90123 5.080414l-11.621262 2.7453918l15.353607 8.939117l-26.052551 -3.4488525l1.8569412 8.126953l-16.98304 -3.860962l-3.4925232 7.82312l-10.698952 -3.9608154l-7.2064133 6.302826l-7.2125626 -4.270447l-16.04842 9.352173l-0.6886673 -9.041992l-21.64384 -1.1158752l12.574333 -6.6071167l-20.475567 -6.7079773l24.195602 -3.459076l-16.989185 -8.939026l25.825039 -1.2201538l-5.349472 -11.280762l24.890415 7.4182434l7.206421 -12.09671z" fill-rule="nonzero"></path><path fill="#000000" d="m70.04541 379.90295q0.09375 0 0.09375 0.203125l0.25 1.96875q0.03125 0.1875 0.03125 0.25q0 0.046875 -0.15625 0.046875q-0.140625 0 -0.171875 -0.03125q-0.03125 -0.046875 -0.078125 -0.125q-0.03125 -0.09375 -0.09375 -0.20309448q-0.046875 -0.109375 -0.09375 -0.234375q-0.203125 -0.421875 -0.609375 -0.8437195q-1.03125 -0.9843445 -2.3125 -0.98428345q-0.765625 3.0517578E-5 -1.453125 0.51568604q-0.6875 0.5000305 -0.6875 1.1875305q0 0.671875 0.25 1.1718445q0.265625 0.5 0.671875 0.9374695q0.421875 0.421875 0.953125 0.8124695q0.546875 0.39059448 1.109375 0.7812195q1.46875 1.031189 2.09375 1.7655334q0.96875 1.124939 1.0625 2.546814q0 1.5625 -1.21875 2.515686q-1.203125 0.93756104 -2.8125 0.9376221q-1.03125 3.0517578E-5 -1.640625 -0.21868896q-0.609375 -0.20309448 -0.84375 -0.29684448q-0.21875 -0.09371948 -0.328125 -0.09371948q-0.109371185 0 -0.14062119 0.015625l-0.453125 0.09378052q-0.125 0 -0.140625 -0.203125q-0.28125 -2.296875 -0.28125 -2.4375q0 -0.140625 0.015625 -0.1875q0.03125 -0.0625 0.140625 -0.0625q0.265625 0 0.46875 0.7499695q0.9843712 2.0780945 3.2343712 2.078003q1.046875 -6.1035156E-5 1.78125 -0.62509155q0.734375 -0.6250305 0.734375 -1.6406555q0 -1.609375 -1.921875 -2.9999084q-0.546875 -0.39059448 -1.578125 -1.078064q-1.03125 -0.70306396 -1.640625 -1.406189q-0.9531212 -1.078064 -0.9531212 -2.390564q0 -1.328125 1.0468712 -2.171936q1.046875 -0.8437805 2.421875 -0.84384155q0.703125 -3.0517578E-5 1.546875 0.24993896q0.859375 0.23434448 1.1875 0.31243896l0.515625 -0.06253052zm5.221344 12.671661q0 -0.078125 0.078125 -0.078125l0.265625 0q0.90625 -6.1035156E-5 1.453125 -0.39068604q0.5625 -0.39065552 0.5625 -0.9062805l0 -10.265625q0 -0.203125 -0.078125 -0.21875q-0.078125 -0.03125 -0.1875 -0.046875l-3.5625 1.5258789E-4q-0.875 0.18753052 -1.140625 1.328186q-0.140625 0.609375 -0.171875 0.78125q-0.03125 0.171875 -0.109375 0.171875l-0.15625 0q-0.0625 0 -0.0625 -0.03125l0 -0.3125l0.34375 -2.890625q0.0625 -0.28125 0.1875 -0.28125q0.125 -3.0517578E-5 0.265625 0.18746948q0.15625 0.171875 0.578125 0.17184448l10.0 -3.9672852E-4q0.390625 -3.0517578E-5 0.46875 -0.09378052q0.09375 -0.09375 0.171875 -0.171875q0.078125 -0.09378052 0.1875 -0.09378052q0.125 0 0.15625 0.09375q0.03125 0.09375 0.046875 0.1875l0.34375 2.890625l0 0.3125q0 0.03125 -0.0625 0.03125l-0.15625 0q-0.078125 0 -0.109375 -0.140625q-0.140625 -0.921875 -0.421875 -1.4530945q-0.28125 -0.546875 -0.890625 -0.6874695l-3.5625 1.5258789E-4q-0.109375 0.015625 -0.1875 0.046875q-0.078125 0.015625 -0.078125 0.21875l0 10.265625q0 0.515625 0.546875 0.9062195q0.546875 0.390625 1.453125 0.39056396l0.28125 0q0.0625 0 0.0625 0.078125l0 0.21875q0 0.078125 -0.0625 0.078125l-6.375 2.746582E-4q-0.078125 0 -0.078125 -0.078125l0 -0.21875zm11.182465 -8.641113l-0.234375 0.031280518q-0.09375 0 -0.09375 -0.0625q0 -0.25 0.3125 -1.1406555q0.3125 -0.890625 0.703125 -1.2969055q1.34375 -1.3906555 3.015625 -1.3907471q1.6875 -6.1035156E-5 2.703125 1.0623779q1.03125 1.0468445 1.03125 2.6405945q0 1.59375 -2.0625 3.5157166q-0.65625 0.6094055 -1.078125 0.9687805q-0.5625 0.48440552 -1.96875 1.8594666q-1.40625 1.359436 -1.40625 1.500061l5.21875 -2.1362305E-4q0.6875 -3.0517578E-5 0.953125 -0.39068604q0.171875 -0.21875 0.4375 -1.171875l0.34375 -3.0517578E-5l-0.390625 2.5000305q-0.046875 0.21875 -0.21875 0.3125l-7.71875 3.3569336E-4q-0.046875 0 -0.046875 -0.234375q0 -0.234375 0.421875 -0.71875q0.4375 -0.5000305 1.109375 -1.171936q0.671875 -0.6719055 1.84375 -1.8438416q2.9375 -3.000122 2.9375 -4.796997q0 -1.109375 -0.796875 -1.9999695q-0.796875 -0.89056396 -1.859375 -0.89053345q-1.0625 3.0517578E-5 -1.90625 0.70321655q-0.8125 0.7187805 -1.09375 1.8594055q-0.046875 0.15625 -0.15625 0.15625z" fill-rule="nonzero"></path><path fill="#ffffff" d="m94.16491 441.3394l20.463272 -11.685516l-1.6294403 15.546417l21.410194 -7.0111694l-10.004135 9.04245l32.096832 0.30273438l-28.3768 7.4205017l7.90123 5.080414l-11.621262 2.7453918l15.353607 8.939087l-26.052551 -3.4488525l1.8569412 8.126984l-16.98304 -3.860962l-3.4925232 7.8230896l-10.698952 -3.960785l-7.2064133 6.3027954l-7.2125626 -4.2704163l-16.04842 9.352173l-0.6886673 -9.041992l-21.64384 -1.1158752l12.574333 -6.607147l-20.475565 -6.7079773l24.1956 -3.4590454l-16.989185 -8.939026l25.825039 -1.2201843l-5.349472 -11.280762l24.890415 7.4182434l7.206421 -12.09668z" fill-rule="nonzero"></path><path stroke="#000000" stroke-width="1.0" stroke-linejoin="round" stroke-linecap="butt" d="m94.16491 441.3394l20.463272 -11.685516l-1.6294403 15.546417l21.410194 -7.0111694l-10.004135 9.04245l32.096832 0.30273438l-28.3768 7.4205017l7.90123 5.080414l-11.621262 2.7453918l15.353607 8.939087l-26.052551 -3.4488525l1.8569412 8.126984l-16.98304 -3.860962l-3.4925232 7.8230896l-10.698952 -3.960785l-7.2064133 6.3027954l-7.2125626 -4.2704163l-16.04842 9.352173l-0.6886673 -9.041992l-21.64384 -1.1158752l12.574333 -6.607147l-20.475565 -6.7079773l24.1956 -3.4590454l-16.989185 -8.939026l25.825039 -1.2201843l-5.349472 -11.280762l24.890415 7.4182434l7.206421 -12.09668z" fill-rule="nonzero"></path><path fill="#000000" d="m73.54673 453.63525q0.09375 0 0.09375 0.203125l0.25 1.9687195q0.03125 0.1875 0.03125 0.25q0 0.046875 -0.15625 0.046905518q-0.140625 0 -0.171875 -0.03125q-0.03125 -0.046875 -0.078125 -0.125q-0.03125 -0.09375 -0.09375 -0.203125q-0.046875 -0.109375 -0.09375 -0.234375q-0.203125 -0.421875 -0.609375 -0.8437195q-1.03125 -0.9843445 -2.3125 -0.98428345q-0.765625 3.0517578E-5 -1.453125 0.51568604q-0.6875 0.5000305 -0.6875 1.1875305q0 0.671875 0.25 1.171875q0.265625 0.49996948 0.671875 0.9374695q0.421875 0.42184448 0.953125 0.8124695q0.546875 0.39059448 1.109375 0.78118896q1.46875 1.031189 2.09375 1.7655334q0.96875 1.1249695 1.0625 2.5468445q0 1.5625 -1.21875 2.5156555q-1.203125 0.93756104 -2.8125 0.9376221q-1.03125 6.1035156E-5 -1.640625 -0.21865845q-0.609375 -0.203125 -0.84375 -0.29684448q-0.21875 -0.09375 -0.328125 -0.09375q-0.109375 0 -0.140625 0.015625l-0.453125 0.09378052q-0.125 0 -0.140625 -0.203125q-0.28125 -2.2968445 -0.28125 -2.4374695q0 -0.140625 0.015625 -0.1875q0.03125 -0.0625 0.140625 -0.06253052q0.265625 0 0.46875 0.75q0.984375 2.078064 3.234375 2.0779724q1.046875 -3.0517578E-5 1.78125 -0.62506104q0.734375 -0.6250305 0.734375 -1.6406555q0 -1.609375 -1.921875 -2.999939q-0.546875 -0.39059448 -1.578125 -1.0780334q-1.03125 -0.7030945 -1.640625 -1.406189q-0.953125 -1.0780945 -0.953125 -2.3905945q0 -1.328125 1.046875 -2.1719055q1.046875 -0.84381104 2.421875 -0.8438721q0.703125 -3.0517578E-5 1.546875 0.24993896q0.859375 0.23434448 1.1875 0.31246948l0.515625 -0.06253052zm5.221344 12.671661q0 -0.078125 0.078125 -0.07815552l0.265625 0q0.90625 -3.0517578E-5 1.453125 -0.39068604q0.5625 -0.39065552 0.5625 -0.9062805l0 -10.265625q0 -0.203125 -0.078125 -0.21875q-0.078125 -0.03125 -0.1875 -0.046844482l-3.5625 1.5258789E-4q-0.875 0.18753052 -1.140625 1.3281555q-0.140625 0.609375 -0.171875 0.78125q-0.03125 0.171875 -0.109375 0.17190552l-0.15625 0q-0.0625 0 -0.0625 -0.03125l0 -0.3125l0.34375 -2.8906555q0.0625 -0.28125 0.1875 -0.28125q0.125 0 0.265625 0.1875q0.15625 0.171875 0.578125 0.17184448l10.0 -4.272461E-4q0.390625 -3.0517578E-5 0.46875 -0.09378052q0.09375 -0.09375 0.171875 -0.171875q0.078125 -0.09375 0.1875 -0.09375q0.125 0 0.15625 0.09375q0.03125 0.09375 0.046875 0.1875l0.34375 2.8905945l0 0.3125q0 0.03125 -0.0625 0.03125l-0.15625 0q-0.078125 0 -0.109375 -0.14059448q-0.140625 -0.921875 -0.421875 -1.453125q-0.28125 -0.546875 -0.890625 -0.6874695l-3.5625 1.5258789E-4q-0.109375 0.015625 -0.1875 0.046905518q-0.078125 0.015625 -0.078125 0.21875l0 10.265625q0 0.515625 0.546875 0.9062195q0.546875 0.39059448 1.453125 0.39056396l0.28125 0q0.0625 -3.0517578E-5 0.0625 0.07809448l0 0.21875q0 0.078125 -0.0625 0.07815552l-6.375 2.4414062E-4q-0.078125 3.0517578E-5 -0.078125 -0.07809448l0 -0.21875zm15.44809 -7.4069214q0.109375 -0.03125 0.34375 -0.031280518q1.078125 -3.0517578E-5 1.96875 0.90618896q0.90625 0.90618896 0.90625 2.296814q0 1.390625 -0.75 2.4687805q-0.734375 1.0625305 -1.828125 1.6875916q-1.09375 0.62506104 -2.125 0.62509155q-2.265625 9.1552734E-5 -3.078125 -0.9061279q-0.203125 -0.23434448 -0.296875 -0.5624695q0 -0.625 0.765625 -0.6250305q0.1875 -3.0517578E-5 0.78125 0.46871948q0.59375 0.45309448 1.109375 0.74993896q0.515625 0.29684448 1.171875 0.28118896q1.21875 -0.031280518 1.984375 -1.171936q0.765625 -1.1406555 0.765625 -2.4844055q0 -1.359375 -0.671875 -2.03125q-0.671875 -0.6874695 -1.59375 -0.68740845q-0.484375 0 -0.8125 0.18753052q-0.328125 0.171875 -0.390625 0.25q-0.046875 0.0625 -0.09375 0.0625q-0.03125 3.0517578E-5 -0.109375 -0.062469482q-0.0625 -0.078125 -0.0625 -0.125q0 -0.0625 0.0625 -0.125q0.0625 -0.0625 0.140625 -0.12503052q0.09375 -0.078125 0.171875 -0.140625q2.3125 -1.7969666 2.3125 -3.1563416q0 -0.78125 -0.59375 -1.2968445q-0.578125 -0.5155945 -1.234375 -0.51556396q-1.703125 6.1035156E-5 -2.75 1.9063416q-0.015625 0.015625 -0.078125 0.015625q-0.0625 3.0517578E-5 -0.1875 -0.046844482q-0.109375 -0.0625 -0.109375 -0.09375q0 -0.03125 0.015625 -0.078125q0.03125 -0.0625 0.140625 -0.359375q0.125 -0.3125 0.515625 -0.7812805q0.390625 -0.48440552 0.84375 -0.8437805q1.0 -0.75006104 1.796875 -0.75009155q1.46875 -6.1035156E-5 2.21875 0.59365845q0.765625 0.5780945 0.765625 1.6249695q0 1.046875 -1.125 2.171936q-0.203125 0.15625 -0.5625 0.40625q-0.34375 0.23440552 -0.34375 0.28128052l0 0.015625l0.015625 0z" fill-rule="nonzero"></path><path fill="#000000" fill-opacity="0.0" d="m240.50394 213.64043l0 32.094482" fill-rule="nonzero"></path><path stroke="#76a5af" stroke-width="3.0" stroke-linejoin="round" stroke-linecap="butt" d="m240.50394 213.64043l0 14.094482" fill-rule="evenodd"></path><path fill="#76a5af" stroke="#76a5af" stroke-width="3.0" stroke-linecap="butt" d="m235.54874 227.73491l4.9552 13.614288l4.9552 -13.614288z" fill-rule="evenodd"></path><path fill="#000000" fill-opacity="0.0" d="m240.50394 287.38977l0 32.094482" fill-rule="nonzero"></path><path stroke="#76a5af" stroke-width="3.0" stroke-linejoin="round" stroke-linecap="butt" d="m240.50394 287.38977l0 14.094482" fill-rule="evenodd"></path><path fill="#76a5af" stroke="#76a5af" stroke-width="3.0" stroke-linecap="butt" d="m235.54874 301.48425l4.9552 13.614288l4.9552 -13.614288z" fill-rule="evenodd"></path><path fill="#000000" fill-opacity="0.0" d="m282.17322 287.38977l0 32.094482" fill-rule="nonzero"></path><path stroke="#76a5af" stroke-width="3.0" stroke-linejoin="round" stroke-linecap="butt" d="m282.17322 287.38977l0 14.094482" fill-rule="evenodd"></path><path fill="#76a5af" stroke="#76a5af" stroke-width="3.0" stroke-linecap="butt" d="m277.21802 301.48425l4.9552 13.614288l4.9552 -13.614288z" fill-rule="evenodd"></path><path fill="#000000" fill-opacity="0.0" d="m282.17322 361.1391l41.66931 32.06299" fill-rule="nonzero"></path><path stroke="#76a5af" stroke-width="3.0" stroke-linejoin="round" stroke-linecap="butt" d="m282.17322 361.1391l27.403687 21.08612" fill-rule="evenodd"></path><path fill="#76a5af" stroke="#76a5af" stroke-width="3.0" stroke-linecap="butt" d="m306.55508 386.15237l13.811615 4.3752136l-7.7680054 -12.229523z" fill-rule="evenodd"></path><path fill="#000000" fill-opacity="0.0" d="m282.17322 361.1391l0 32.06299" fill-rule="nonzero"></path><path stroke="#76a5af" stroke-width="3.0" stroke-linejoin="round" stroke-linecap="butt" d="m282.17322 361.1391l0 14.062988" fill-rule="evenodd"></path><path fill="#76a5af" stroke="#76a5af" stroke-width="3.0" stroke-linecap="butt" d="m277.21802 375.2021l4.9552 13.614319l4.9552 -13.614319z" fill-rule="evenodd"></path><path fill="#000000" fill-opacity="0.0" d="m240.50394 361.1391l0 32.06299" fill-rule="nonzero"></path><path stroke="#ea9999" stroke-width="3.0" stroke-linejoin="round" stroke-linecap="butt" d="m240.50394 361.1391l0 14.062988" fill-rule="evenodd"></path><path fill="#ea9999" stroke="#ea9999" stroke-width="3.0" stroke-linecap="butt" d="m235.54874 375.2021l4.9552 13.614319l4.9552 -13.614319z" fill-rule="evenodd"></path><path fill="#000000" fill-opacity="0.0" d="m240.50394 434.88583l41.66928 32.094482" fill-rule="nonzero"></path><path stroke="#ea9999" stroke-width="3.0" stroke-linejoin="round" stroke-linecap="butt" d="m240.50394 434.88583l27.408875 21.11084" fill-rule="evenodd"></path><path fill="#ea9999" stroke="#ea9999" stroke-width="3.0" stroke-linecap="butt" d="m264.88913 459.9224l13.80954 4.3817444l-7.7621765 -12.233215z" fill-rule="evenodd"></path><path fill="#000000" fill-opacity="0.0" d="m282.17322 434.88583l0 32.094482" fill-rule="nonzero"></path><path stroke="#76a5af" stroke-width="3.0" stroke-linejoin="round" stroke-linecap="butt" d="m282.17322 434.88583l0 14.094482" fill-rule="evenodd"></path><path fill="#76a5af" stroke="#76a5af" stroke-width="3.0" stroke-linecap="butt" d="m277.21802 448.98032l4.9552 13.614288l4.9552 -13.614288z" fill-rule="evenodd"></path><path fill="#000000" fill-opacity="0.0" d="m323.84253 434.88583l0 32.094482" fill-rule="nonzero"></path><path stroke="#76a5af" stroke-width="3.0" stroke-linejoin="round" stroke-linecap="butt" d="m323.84253 434.88583l0 14.094482" fill-rule="evenodd"></path><path fill="#76a5af" stroke="#76a5af" stroke-width="3.0" stroke-linecap="butt" d="m318.88733 448.98032l4.9552 13.614288l4.9552 -13.614288z" fill-rule="evenodd"></path><path fill="#000000" fill-opacity="0.0" d="m408.18896 361.12204l-42.677155 32.094482" fill-rule="nonzero"></path><path stroke="#76a5af" stroke-width="3.0" stroke-linejoin="round" stroke-linecap="butt" d="m408.18896 361.12204l-28.291168 21.275818" fill-rule="evenodd"></path><path fill="#76a5af" stroke="#76a5af" stroke-width="3.0" stroke-linecap="butt" d="m376.91953 378.43756l-7.9025574 12.143005l13.85907 -4.222412z" fill-rule="evenodd"></path><path fill="#000000" fill-opacity="0.0" d="m407.1811 287.38977l-0.50393677 32.094482" fill-rule="nonzero"></path><path stroke="#76a5af" stroke-width="3.0" stroke-linejoin="round" stroke-linecap="butt" d="m407.1811 287.38977l-0.22131348 14.09671" fill-rule="evenodd"></path><path fill="#76a5af" stroke="#76a5af" stroke-width="3.0" stroke-linecap="butt" d="m402.0052 301.40866l4.7408447 13.69043l5.1683044 -13.534821z" fill-rule="evenodd"></path><path fill="#000000" fill-opacity="0.0" d="m407.1811 213.63911l-0.50393677 32.094482" fill-rule="nonzero"></path><path stroke="#76a5af" stroke-width="3.0" stroke-linejoin="round" stroke-linecap="butt" d="m407.1811 213.63911l-0.22131348 14.096695" fill-rule="evenodd"></path><path fill="#76a5af" stroke="#76a5af" stroke-width="3.0" stroke-linecap="butt" d="m402.0052 227.65802l4.7408447 13.690414l5.1683044 -13.534821z" fill-rule="evenodd"></path><path fill="#000000" fill-opacity="0.0" d="m365.5118 434.88583l0 32.06299" fill-rule="nonzero"></path><path stroke="#76a5af" stroke-width="3.0" stroke-linejoin="round" stroke-linecap="butt" d="m365.5118 434.88583l0 14.062988" fill-rule="evenodd"></path><path fill="#76a5af" stroke="#76a5af" stroke-width="3.0" stroke-linecap="butt" d="m360.5566 448.94882l4.9552 13.614288l4.9552 -13.614288z" fill-rule="evenodd"></path><path fill="#ffffff" d="m178.0 171.97113l41.669296 0l0 41.669296l-41.669296 0z" fill-rule="nonzero"></path><path stroke="#666666" stroke-width="1.0" stroke-linejoin="round" stroke-linecap="butt" d="m178.0 171.97113l41.669296 0l0 41.669296l-41.669296 0z" fill-rule="nonzero"></path><path fill="#ffffff" d="m219.6693 171.97113l41.669296 0l0 41.669296l-41.669296 0z" fill-rule="nonzero"></path><path stroke="#666666" stroke-width="1.0" stroke-linejoin="round" stroke-linecap="butt" d="m219.6693 171.97113l41.669296 0l0 41.669296l-41.669296 0z" fill-rule="nonzero"></path><path fill="#ffffff" d="m261.3386 171.97113l41.66928 0l0 41.669296l-41.66928 0z" fill-rule="nonzero"></path><path stroke="#666666" stroke-width="1.0" stroke-linejoin="round" stroke-linecap="butt" d="m261.3386 171.97113l41.66928 0l0 41.669296l-41.66928 0z" fill-rule="nonzero"></path><path fill="#ffffff" d="m303.00787 171.97113l41.66928 0l0 41.669296l-41.66928 0z" fill-rule="nonzero"></path><path stroke="#666666" stroke-width="1.0" stroke-linejoin="round" stroke-linecap="butt" d="m303.00787 171.97113l41.66928 0l0 41.669296l-41.66928 0z" fill-rule="nonzero"></path><path fill="#ffffff" d="m344.67715 171.97113l41.66931 0l0 41.669296l-41.66931 0z" fill-rule="nonzero"></path><path stroke="#666666" stroke-width="1.0" stroke-linejoin="round" stroke-linecap="butt" d="m344.67715 171.97113l41.66931 0l0 41.669296l-41.66931 0z" fill-rule="nonzero"></path><path fill="#ffffff" d="m386.34647 171.97113l41.66928 0l0 41.669296l-41.66928 0z" fill-rule="nonzero"></path><path stroke="#666666" stroke-width="1.0" stroke-linejoin="round" stroke-linecap="butt" d="m386.34647 171.97113l41.66928 0l0 41.669296l-41.66928 0z" fill-rule="nonzero"></path><path fill="#ffffff" d="m428.01575 171.97113l41.66928 0l0 41.669296l-41.66928 0z" fill-rule="nonzero"></path><path stroke="#666666" stroke-width="1.0" stroke-linejoin="round" stroke-linecap="butt" d="m428.01575 171.97113l41.66928 0l0 41.669296l-41.66928 0z" fill-rule="nonzero"></path><path fill="#ffffff" d="m178.0 319.46982l41.669296 0l0 41.66928l-41.669296 0z" fill-rule="nonzero"></path><path stroke="#666666" stroke-width="1.0" stroke-linejoin="round" stroke-linecap="butt" d="m178.0 319.46982l41.669296 0l0 41.66928l-41.669296 0z" fill-rule="nonzero"></path><path fill="#ffffff" d="m219.6693 319.46982l41.669296 0l0 41.66928l-41.669296 0z" fill-rule="nonzero"></path><path stroke="#666666" stroke-width="1.0" stroke-linejoin="round" stroke-linecap="butt" d="m219.6693 319.46982l41.669296 0l0 41.66928l-41.669296 0z" fill-rule="nonzero"></path><path fill="#ffffff" d="m261.3386 319.46982l41.66928 0l0 41.66928l-41.66928 0z" fill-rule="nonzero"></path><path stroke="#666666" stroke-width="1.0" stroke-linejoin="round" stroke-linecap="butt" d="m261.3386 319.46982l41.66928 0l0 41.66928l-41.66928 0z" fill-rule="nonzero"></path><path fill="#ffffff" d="m303.00787 319.46982l41.66928 0l0 41.66928l-41.66928 0z" fill-rule="nonzero"></path><path stroke="#666666" stroke-width="1.0" stroke-linejoin="round" stroke-linecap="butt" d="m303.00787 319.46982l41.66928 0l0 41.66928l-41.66928 0z" fill-rule="nonzero"></path><path fill="#ffffff" d="m344.67715 319.46982l41.66931 0l0 41.66928l-41.66931 0z" fill-rule="nonzero"></path><path stroke="#666666" stroke-width="1.0" stroke-linejoin="round" stroke-linecap="butt" d="m344.67715 319.46982l41.66931 0l0 41.66928l-41.66931 0z" fill-rule="nonzero"></path><path fill="#ffffff" d="m386.34647 319.46982l41.66928 0l0 41.66928l-41.66928 0z" fill-rule="nonzero"></path><path stroke="#666666" stroke-width="1.0" stroke-linejoin="round" stroke-linecap="butt" d="m386.34647 319.46982l41.66928 0l0 41.66928l-41.66928 0z" fill-rule="nonzero"></path><path fill="#ffffff" d="m428.01575 319.46982l41.66928 0l0 41.66928l-41.66928 0z" fill-rule="nonzero"></path><path stroke="#666666" stroke-width="1.0" stroke-linejoin="round" stroke-linecap="butt" d="m428.01575 319.46982l41.66928 0l0 41.66928l-41.66928 0z" fill-rule="nonzero"></path><path fill="#ffffff" d="m178.0 245.72047l41.669296 0l0 41.669296l-41.669296 0z" fill-rule="nonzero"></path><path stroke="#666666" stroke-width="1.0" stroke-linejoin="round" stroke-linecap="butt" d="m178.0 245.72047l41.669296 0l0 41.669296l-41.669296 0z" fill-rule="nonzero"></path><path fill="#ffffff" d="m219.6693 245.72047l41.669296 0l0 41.669296l-41.669296 0z" fill-rule="nonzero"></path><path stroke="#666666" stroke-width="1.0" stroke-linejoin="round" stroke-linecap="butt" d="m219.6693 245.72047l41.669296 0l0 41.669296l-41.669296 0z" fill-rule="nonzero"></path><path fill="#ffffff" d="m261.3386 245.72047l41.66928 0l0 41.669296l-41.66928 0z" fill-rule="nonzero"></path><path stroke="#666666" stroke-width="1.0" stroke-linejoin="round" stroke-linecap="butt" d="m261.3386 245.72047l41.66928 0l0 41.669296l-41.66928 0z" fill-rule="nonzero"></path><path fill="#ffffff" d="m303.00787 245.72047l41.66928 0l0 41.669296l-41.66928 0z" fill-rule="nonzero"></path><path stroke="#666666" stroke-width="1.0" stroke-linejoin="round" stroke-linecap="butt" d="m303.00787 245.72047l41.66928 0l0 41.669296l-41.66928 0z" fill-rule="nonzero"></path><path fill="#ffffff" d="m344.67715 245.72047l41.66931 0l0 41.669296l-41.66931 0z" fill-rule="nonzero"></path><path stroke="#666666" stroke-width="1.0" stroke-linejoin="round" stroke-linecap="butt" d="m344.67715 245.72047l41.66931 0l0 41.669296l-41.66931 0z" fill-rule="nonzero"></path><path fill="#ffffff" d="m386.34647 245.72047l41.66928 0l0 41.669296l-41.66928 0z" fill-rule="nonzero"></path><path stroke="#666666" stroke-width="1.0" stroke-linejoin="round" stroke-linecap="butt" d="m386.34647 245.72047l41.66928 0l0 41.669296l-41.66928 0z" fill-rule="nonzero"></path><path fill="#ffffff" d="m428.01575 245.72047l41.66928 0l0 41.669296l-41.66928 0z" fill-rule="nonzero"></path><path stroke="#666666" stroke-width="1.0" stroke-linejoin="round" stroke-linecap="butt" d="m428.01575 245.72047l41.66928 0l0 41.669296l-41.66928 0z" fill-rule="nonzero"></path><path fill="#ffffff" d="m178.0 466.96588l41.669296 0l0 41.66928l-41.669296 0z" fill-rule="nonzero"></path><path stroke="#666666" stroke-width="1.0" stroke-linejoin="round" stroke-linecap="butt" d="m178.0 466.96588l41.669296 0l0 41.66928l-41.669296 0z" fill-rule="nonzero"></path><path fill="#ffffff" d="m219.6693 466.96588l41.669296 0l0 41.66928l-41.669296 0z" fill-rule="nonzero"></path><path stroke="#666666" stroke-width="1.0" stroke-linejoin="round" stroke-linecap="butt" d="m219.6693 466.96588l41.669296 0l0 41.66928l-41.669296 0z" fill-rule="nonzero"></path><path fill="#ffffff" d="m261.3386 466.96588l41.66928 0l0 41.66928l-41.66928 0z" fill-rule="nonzero"></path><path stroke="#666666" stroke-width="1.0" stroke-linejoin="round" stroke-linecap="butt" d="m261.3386 466.96588l41.66928 0l0 41.66928l-41.66928 0z" fill-rule="nonzero"></path><path fill="#ffffff" d="m303.00787 466.96588l41.66928 0l0 41.66928l-41.66928 0z" fill-rule="nonzero"></path><path stroke="#666666" stroke-width="1.0" stroke-linejoin="round" stroke-linecap="butt" d="m303.00787 466.96588l41.66928 0l0 41.66928l-41.66928 0z" fill-rule="nonzero"></path><path fill="#ffffff" d="m344.67715 466.96588l41.66931 0l0 41.66928l-41.66931 0z" fill-rule="nonzero"></path><path stroke="#666666" stroke-width="1.0" stroke-linejoin="round" stroke-linecap="butt" d="m344.67715 466.96588l41.66931 0l0 41.66928l-41.66931 0z" fill-rule="nonzero"></path><path fill="#ffffff" d="m386.34647 466.96588l41.66928 0l0 41.66928l-41.66928 0z" fill-rule="nonzero"></path><path stroke="#666666" stroke-width="1.0" stroke-linejoin="round" stroke-linecap="butt" d="m386.34647 466.96588l41.66928 0l0 41.66928l-41.66928 0z" fill-rule="nonzero"></path><path fill="#ffffff" d="m428.01575 466.96588l41.66928 0l0 41.66928l-41.66928 0z" fill-rule="nonzero"></path><path stroke="#666666" stroke-width="1.0" stroke-linejoin="round" stroke-linecap="butt" d="m428.01575 466.96588l41.66928 0l0 41.66928l-41.66928 0z" fill-rule="nonzero"></path><path fill="#ffffff" d="m178.0 393.21652l41.669296 0l0 41.66931l-41.669296 0z" fill-rule="nonzero"></path><path stroke="#666666" stroke-width="1.0" stroke-linejoin="round" stroke-linecap="butt" d="m178.0 393.21652l41.669296 0l0 41.66931l-41.669296 0z" fill-rule="nonzero"></path><path fill="#ffffff" d="m219.6693 393.21652l41.669296 0l0 41.66931l-41.669296 0z" fill-rule="nonzero"></path><path stroke="#666666" stroke-width="1.0" stroke-linejoin="round" stroke-linecap="butt" d="m219.6693 393.21652l41.669296 0l0 41.66931l-41.669296 0z" fill-rule="nonzero"></path><path fill="#ffffff" d="m261.3386 393.21652l41.66928 0l0 41.66931l-41.66928 0z" fill-rule="nonzero"></path><path stroke="#666666" stroke-width="1.0" stroke-linejoin="round" stroke-linecap="butt" d="m261.3386 393.21652l41.66928 0l0 41.66931l-41.66928 0z" fill-rule="nonzero"></path><path fill="#ffffff" d="m303.00787 393.21652l41.66928 0l0 41.66931l-41.66928 0z" fill-rule="nonzero"></path><path stroke="#666666" stroke-width="1.0" stroke-linejoin="round" stroke-linecap="butt" d="m303.00787 393.21652l41.66928 0l0 41.66931l-41.66928 0z" fill-rule="nonzero"></path><path fill="#ffffff" d="m344.67715 393.21652l41.66931 0l0 41.66931l-41.66931 0z" fill-rule="nonzero"></path><path stroke="#666666" stroke-width="1.0" stroke-linejoin="round" stroke-linecap="butt" d="m344.67715 393.21652l41.66931 0l0 41.66931l-41.66931 0z" fill-rule="nonzero"></path><path fill="#ffffff" d="m386.34647 393.21652l41.66928 0l0 41.66931l-41.66928 0z" fill-rule="nonzero"></path><path stroke="#666666" stroke-width="1.0" stroke-linejoin="round" stroke-linecap="butt" d="m386.34647 393.21652l41.66928 0l0 41.66931l-41.66928 0z" fill-rule="nonzero"></path><path fill="#ffffff" d="m428.01575 393.21652l41.66928 0l0 41.66931l-41.66928 0z" fill-rule="nonzero"></path><path stroke="#666666" stroke-width="1.0" stroke-linejoin="round" stroke-linecap="butt" d="m428.01575 393.21652l41.66928 0l0 41.66931l-41.66928 0z" fill-rule="nonzero"></path><path fill="#a2c4c9" d="m294.77167 37.070866l0 0c0 -16.055395 13.015442 -29.070866 29.070862 -29.070866c16.05539 0 29.070862 13.0154705 29.070862 29.070866c0 16.055397 -13.015472 29.070866 -29.070862 29.070866c-16.05542 0 -29.070862 -13.015469 -29.070862 -29.070866z" fill-rule="nonzero"></path><path fill="#819ca0" d="m311.50085 28.376524c0 -1.6724377 1.3557739 -3.0282154 3.0282288 -3.0282154c1.6724243 0 3.0281982 1.3557777 3.0281982 3.0282154c0 1.6724377 -1.3557739 3.0282154 -3.0281982 3.0282154c-1.6724548 0 -3.0282288 -1.3557777 -3.0282288 -3.0282154m18.626892 0c0 -1.6724377 1.3557739 -3.0282154 3.0282288 -3.0282154c1.6724243 0 3.0281982 1.3557777 3.0281982 3.0282154c0 1.6724377 -1.3557739 3.0282154 -3.0281982 3.0282154c-1.6724548 0 -3.0282288 -1.3557777 -3.0282288 -3.0282154" fill-rule="nonzero"></path><path fill="#000000" fill-opacity="0.0" d="m308.0859 49.748863q15.756622 10.821342 31.47641 0" fill-rule="nonzero"></path><path fill="#000000" fill-opacity="0.0" d="m294.77167 37.070866l0 0c0 -16.055395 13.015442 -29.070866 29.070862 -29.070866c16.05539 0 29.070862 13.0154705 29.070862 29.070866c0 16.055397 -13.015472 29.070866 -29.070862 29.070866c-16.05542 0 -29.070862 -13.015469 -29.070862 -29.070866z" fill-rule="nonzero"></path><path stroke="#000000" stroke-width="1.0" stroke-linejoin="round" stroke-linecap="butt" d="m311.50085 28.376524c0 -1.6724377 1.3557739 -3.0282154 3.0282288 -3.0282154c1.6724243 0 3.0281982 1.3557777 3.0281982 3.0282154c0 1.6724377 -1.3557739 3.0282154 -3.0281982 3.0282154c-1.6724548 0 -3.0282288 -1.3557777 -3.0282288 -3.0282154m18.626892 0c0 -1.6724377 1.3557739 -3.0282154 3.0282288 -3.0282154c1.6724243 0 3.0281982 1.3557777 3.0281982 3.0282154c0 1.6724377 -1.3557739 3.0282154 -3.0281982 3.0282154c-1.6724548 0 -3.0282288 -1.3557777 -3.0282288 -3.0282154" fill-rule="nonzero"></path><path stroke="#000000" stroke-width="1.0" stroke-linejoin="round" stroke-linecap="butt" d="m308.0859 49.748863q15.756622 10.821342 31.47641 0" fill-rule="nonzero"></path><path stroke="#000000" stroke-width="1.0" stroke-linejoin="round" stroke-linecap="butt" d="m294.77167 37.070866l0 0c0 -16.055395 13.015442 -29.070866 29.070862 -29.070866c16.05539 0 29.070862 13.0154705 29.070862 29.070866c0 16.055397 -13.015472 29.070866 -29.070862 29.070866c-16.05542 0 -29.070862 -13.015469 -29.070862 -29.070866z" fill-rule="nonzero"></path><path fill="#ea9999" d="m294.77167 611.45404l0 0c0 -16.055359 13.015442 -29.070862 29.070862 -29.070862c16.05539 0 29.070862 13.015503 29.070862 29.070862c0 16.05542 -13.015472 29.070923 -29.070862 29.070923c-16.05542 0 -29.070862 -13.015503 -29.070862 -29.070923z" fill-rule="nonzero"></path><path fill="#bb7a7a" d="m311.50085 602.7597c0 -1.6724243 1.3557739 -3.0281982 3.0282288 -3.0281982c1.6724243 0 3.0281982 1.3557739 3.0281982 3.0281982c0 1.6724854 -1.3557739 3.0282593 -3.0281982 3.0282593c-1.6724548 0 -3.0282288 -1.3557739 -3.0282288 -3.0282593m18.626892 0c0 -1.6724243 1.3557739 -3.0281982 3.0282288 -3.0281982c1.6724243 0 3.0281982 1.3557739 3.0281982 3.0281982c0 1.6724854 -1.3557739 3.0282593 -3.0281982 3.0282593c-1.6724548 0 -3.0282288 -1.3557739 -3.0282288 -3.0282593" fill-rule="nonzero"></path><path fill="#000000" fill-opacity="0.0" d="m308.0859 629.5427q15.756622 -10.82135 31.47641 0" fill-rule="nonzero"></path><path fill="#000000" fill-opacity="0.0" d="m294.77167 611.45404l0 0c0 -16.055359 13.015442 -29.070862 29.070862 -29.070862c16.05539 0 29.070862 13.015503 29.070862 29.070862c0 16.05542 -13.015472 29.070923 -29.070862 29.070923c-16.05542 0 -29.070862 -13.015503 -29.070862 -29.070923z" fill-rule="nonzero"></path><path stroke="#000000" stroke-width="1.0" stroke-linejoin="round" stroke-linecap="butt" d="m311.50085 602.7597c0 -1.6724243 1.3557739 -3.0281982 3.0282288 -3.0281982c1.6724243 0 3.0281982 1.3557739 3.0281982 3.0281982c0 1.6724854 -1.3557739 3.0282593 -3.0281982 3.0282593c-1.6724548 0 -3.0282288 -1.3557739 -3.0282288 -3.0282593m18.626892 0c0 -1.6724243 1.3557739 -3.0281982 3.0282288 -3.0281982c1.6724243 0 3.0281982 1.3557739 3.0281982 3.0281982c0 1.6724854 -1.3557739 3.0282593 -3.0281982 3.0282593c-1.6724548 0 -3.0282288 -1.3557739 -3.0282288 -3.0282593" fill-rule="nonzero"></path><path stroke="#000000" stroke-width="1.0" stroke-linejoin="round" stroke-linecap="butt" d="m308.0859 629.5427q15.756622 -10.82135 31.47641 0" fill-rule="nonzero"></path><path stroke="#000000" stroke-width="1.0" stroke-linejoin="round" stroke-linecap="butt" d="m294.77167 611.45404l0 0c0 -16.055359 13.015442 -29.070862 29.070862 -29.070862c16.05539 0 29.070862 13.015503 29.070862 29.070862c0 16.05542 -13.015472 29.070923 -29.070862 29.070923c-16.05542 0 -29.070862 -13.015503 -29.070862 -29.070923z" fill-rule="nonzero"></path><path fill="#000000" fill-opacity="0.0" d="m303.28632 57.62707l-62.771652 114.3307" fill-rule="nonzero"></path><path stroke="#76a5af" stroke-width="3.0" stroke-linejoin="round" stroke-linecap="butt" d="m303.28632 57.62707l-54.108795 98.5524" fill-rule="evenodd"></path><path fill="#76a5af" stroke="#76a5af" stroke-width="3.0" stroke-linecap="butt" d="m244.83392 153.7947l-2.2085571 14.318695l10.895737 -9.549133z" fill-rule="evenodd"></path><path fill="#000000" fill-opacity="0.0" d="m344.3987 57.62707l62.771667 114.3307" fill-rule="nonzero"></path><path stroke="#76a5af" stroke-width="3.0" stroke-linejoin="round" stroke-linecap="butt" d="m344.39874 57.62707l54.108795 98.5524" fill-rule="evenodd"></path><path fill="#76a5af" stroke="#76a5af" stroke-width="3.0" stroke-linecap="butt" d="m394.16394 158.56425l10.895752 9.549133l-2.2085571 -14.318695z" fill-rule="evenodd"></path><path fill="#000000" fill-opacity="0.0" d="m282.17322 508.63516l21.102386 82.26773" fill-rule="nonzero"></path><path stroke="#ea9999" stroke-width="3.0" stroke-linejoin="round" stroke-linecap="butt" d="m282.17322 508.63516l16.630005 64.832184" fill-rule="evenodd"></path><path fill="#ea9999" stroke="#ea9999" stroke-width="3.0" stroke-linecap="butt" d="m294.00342 574.69855l8.182465 11.956177l1.4171448 -14.418579z" fill-rule="evenodd"></path><path fill="#000000" fill-opacity="0.0" d="m240.50394 213.64043l41.66928 32.094482" fill-rule="nonzero"></path><path stroke="#76a5af" stroke-width="3.0" stroke-linejoin="round" stroke-linecap="butt" d="m240.50394 213.64043l27.408875 21.11084" fill-rule="evenodd"></path><path fill="#76a5af" stroke="#76a5af" stroke-width="3.0" stroke-linecap="butt" d="m264.88913 238.67699l13.80954 4.3817444l-7.7621765 -12.2332z" fill-rule="evenodd"></path><path fill="#000000" fill-opacity="0.0" d="m407.1811 287.38977l-166.67715 32.094482" fill-rule="nonzero"></path><path stroke="#76a5af" stroke-width="3.0" stroke-linejoin="round" stroke-linecap="butt" d="m407.1811 287.38977l-149.00186 28.69101" fill-rule="evenodd"></path><path fill="#76a5af" stroke="#76a5af" stroke-width="3.0" stroke-linecap="butt" d="m257.2423 311.21497l-12.431778 7.440033l14.305649 2.2915955z" fill-rule="evenodd"></path><path fill="#000000" fill-opacity="0.0" d="m323.84253 508.63516l0 73.76376" fill-rule="nonzero"></path><path stroke="#76a5af" stroke-width="3.0" stroke-linejoin="round" stroke-linecap="butt" d="m323.84253 508.63516l0 55.763763" fill-rule="evenodd"></path><path fill="#76a5af" stroke="#76a5af" stroke-width="3.0" stroke-linecap="butt" d="m318.88733 564.3989l4.9552 13.614319l4.9552 -13.614319z" fill-rule="evenodd"></path><path fill="#000000" fill-opacity="0.0" d="m365.5118 508.63516l-21.102356 82.26773" fill-rule="nonzero"></path><path stroke="#76a5af" stroke-width="3.0" stroke-linejoin="round" stroke-linecap="butt" d="m365.5118 508.63516l-16.630005 64.832184" fill-rule="evenodd"></path><path fill="#76a5af" stroke="#76a5af" stroke-width="3.0" stroke-linecap="butt" d="m344.082 572.23615l1.4171448 14.418579l8.182465 -11.956177z" fill-rule="evenodd"></path></g></svg>

